<svg width="548" height="548" xmlns="http://www.w3.org/2000/svg" xmlns:xlink="http://www.w3.org/1999/xlink" xml:space="preserve" overflow="hidden"><defs><clipPath id="clip0"><rect x="1282" y="958" width="548" height="548"/></clipPath><clipPath id="clip1"><rect x="1295" y="972" width="425" height="520"/></clipPath><clipPath id="clip2"><rect x="1295" y="972" width="425" height="520"/></clipPath><clipPath id="clip3"><rect x="1295" y="972" width="425" height="520"/></clipPath><clipPath id="clip4"><rect x="1392" y="972" width="425" height="520"/></clipPath><clipPath id="clip5"><rect x="1392" y="972" width="425" height="520"/></clipPath><clipPath id="clip6"><rect x="1392" y="972" width="425" height="520"/></clipPath></defs><g clip-path="url(#clip0)" transform="translate(-1282 -958)"><g clip-path="url(#clip1)"><g clip-path="url(#clip2)"><g clip-path="url(#clip3)"><path d="M158.889 335.699 140.194 317.008 245.979 211.223 140.189 105.406 158.885 86.715 283.366 211.223 158.889 335.699Z" stroke="#8FAADC" stroke-width="4.40636" fill="#8FAADC" transform="matrix(1 0 0 1.22931 1296 972)"/></g></g></g><g clip-path="url(#clip4)"><g clip-path="url(#clip5)"><g clip-path="url(#clip6)"><path d="M158.889 335.699 140.194 317.008 245.979 211.223 140.189 105.406 158.885 86.715 283.366 211.223 158.889 335.699Z" stroke="#8FAADC" stroke-width="4.40636" fill="#8FAADC" transform="matrix(1 0 0 1.22931 1393 972)"/></g></g></g><path d="M1296 1232C1296 1088.41 1412.41 972 1556 972 1699.59 972 1816 1088.41 1816 1232 1816 1375.59 1699.59 1492 1556 1492 1412.41 1492 1296 1375.59 1296 1232Z" stroke="#8FAADC" stroke-width="27.5" stroke-miterlimit="8" fill="none" fill-rule="evenodd"/></g></svg>