<svg width="548" height="547" xmlns="http://www.w3.org/2000/svg" xmlns:xlink="http://www.w3.org/1999/xlink" xml:space="preserve" overflow="hidden"><defs><clipPath id="clip0"><rect x="2105" y="450" width="548" height="547"/></clipPath><clipPath id="clip1"><rect x="2118" y="464" width="521" height="520"/></clipPath><clipPath id="clip2"><rect x="2118" y="464" width="521" height="520"/></clipPath><clipPath id="clip3"><rect x="2118" y="464" width="521" height="520"/></clipPath></defs><g clip-path="url(#clip0)" transform="translate(-2105 -450)"><g clip-path="url(#clip1)"><g clip-path="url(#clip2)"><g clip-path="url(#clip3)"><path d="M194.949 411.886 172.011 388.953 301.804 259.159 172.005 129.328 194.944 106.395 347.676 259.159 194.949 411.886Z" stroke="#8FAADC" stroke-width="5.40638" fill="#8FAADC" transform="matrix(1.00193 0 0 1 2119 464)"/></g></g></g><path d="M2119 723.5C2119 580.182 2235.41 464 2379 464 2522.59 464 2639 580.182 2639 723.5 2639 866.818 2522.59 983 2379 983 2235.41 983 2119 866.818 2119 723.5Z" stroke="#8FAADC" stroke-width="27.5" stroke-miterlimit="8" fill="none" fill-rule="evenodd"/></g></svg>