<svg width="548" height="548" xmlns="http://www.w3.org/2000/svg" xmlns:xlink="http://www.w3.org/1999/xlink" xml:space="preserve" overflow="hidden"><defs><clipPath id="clip0"><rect x="1951" y="1636" width="548" height="548"/></clipPath><clipPath id="clip1"><rect x="1964" y="1650" width="362" height="521"/></clipPath><clipPath id="clip2"><rect x="1964" y="1650" width="362" height="521"/></clipPath><clipPath id="clip3"><rect x="1964" y="1650" width="362" height="521"/></clipPath><clipPath id="clip4"><rect x="2048" y="1650" width="359" height="521"/></clipPath><clipPath id="clip5"><rect x="2048" y="1650" width="359" height="521"/></clipPath><clipPath id="clip6"><rect x="2048" y="1650" width="359" height="521"/></clipPath><clipPath id="clip7"><rect x="2126" y="1650" width="359" height="521"/></clipPath><clipPath id="clip8"><rect x="2126" y="1650" width="359" height="521"/></clipPath><clipPath id="clip9"><rect x="2126" y="1650" width="359" height="521"/></clipPath></defs><g clip-path="url(#clip0)" transform="translate(-1951 -1636)"><g clip-path="url(#clip1)"><g clip-path="url(#clip2)"><g clip-path="url(#clip3)"><path d="M135.225 285.701 119.314 269.794 209.344 179.764 119.31 89.7076 135.221 73.8001 241.163 179.764 135.225 285.701Z" stroke="#8FAADC" stroke-width="3.75009" fill="#8FAADC" transform="matrix(1 0 0 1.44444 1965 1650)"/></g></g></g><g clip-path="url(#clip4)"><g clip-path="url(#clip5)"><g clip-path="url(#clip6)"><path d="M134.849 284.908 118.982 269.044 208.762 179.264 118.979 89.4583 134.846 73.595 240.493 179.264 134.849 284.908Z" stroke="#8FAADC" stroke-width="3.73967" fill="#8FAADC" transform="matrix(1 0 0 1.44847 2048 1650)"/></g></g></g><g clip-path="url(#clip7)"><g clip-path="url(#clip8)"><g clip-path="url(#clip9)"><path d="M134.849 284.908 118.982 269.044 208.762 179.264 118.979 89.4583 134.846 73.595 240.493 179.264 134.849 284.908Z" stroke="#8FAADC" stroke-width="3.73967" fill="#8FAADC" transform="matrix(1 0 0 1.44847 2126 1650)"/></g></g></g><path d="M1965 1910C1965 1766.41 2081.41 1650 2225 1650 2368.59 1650 2485 1766.41 2485 1910 2485 2053.59 2368.59 2170 2225 2170 2081.41 2170 1965 2053.59 1965 1910Z" stroke="#8FAADC" stroke-width="27.5" stroke-miterlimit="8" fill="none" fill-rule="evenodd"/></g></svg>